<svg width="145" height="116" fill="none" xmlns="http://www.w3.org/2000/svg"><path fill-rule="evenodd" clip-rule="evenodd" d="M9.1 99.06c-.1.204-.151.306-.151.459 0 .153.1.306.303.306h6.724c.455 0 .506.05.506.509v4.283c0 .459-.05.51-.506.51H.354c-.253 0-.354-.102-.354-.255 0-.102.05-.204.101-.306l7.938-14.989c.1-.204.151-.357.151-.51 0-.153-.1-.255-.303-.255H1.416c-.456 0-.506-.05-.506-.51V84.02c0-.459.05-.51.505-.51h15.37c.253 0 .354.051.354.204 0 .102-.05.204-.101.306L9.1 99.06zM20.07 96.205V84.02c0-.408.051-.51.506-.51h5.258c.455 0 .506.102.506.51v12.083c0 2.855 1.264 3.976 3.236 3.976 1.971 0 3.235-1.172 3.235-3.976V84.02c0-.408.05-.51.506-.51h5.207c.455 0 .506.102.506.51v12.185c0 5.251-3.034 9.381-9.454 9.381-6.421 0-9.505-4.079-9.505-9.381zM62.59 86.824c.05 0 .152 0 .202-.051C64.36 84.937 66.432 83 69.668 83c5.46 0 7.28 3.416 7.28 8.26v13.306c0 .408-.05.51-.505.51h-5.207c-.456 0-.506-.102-.506-.51V92.534c0-2.6-.86-3.977-3.236-3.977-2.528 0-4.145 1.784-4.145 4.793v11.216c0 .408-.051.51-.506.51h-5.208c-.455 0-.505-.102-.505-.51V92.534c0-2.6-.86-3.977-3.236-3.977-2.528 0-4.095 1.784-4.095 4.793v11.216c0 .408-.05.51-.506.51h-5.207c-.455 0-.506-.102-.506-.51V84.02c0-.408.05-.51.506-.51h5.207c.455 0 .506.102.506.51v1.937c0 .051.152.102.202.102.05 0 .152 0 .202-.051C51.771 84.275 53.49 83 56.17 83c3.59 0 5.208 1.58 6.168 3.722.101.102.203.102.253.102zM92.824 88.404c-3.337 0-5.359 2.753-5.359 5.863 0 3.263 2.022 5.914 5.36 5.914 3.336 0 5.308-2.702 5.308-5.965 0-3.11-1.972-5.812-5.309-5.812zm-5.207-2.753c0 .051.151.102.202.102.05 0 .152 0 .202-.05 1.264-1.48 3.64-2.703 6.37-2.703 5.966 0 10.062 5.098 10.062 11.216 0 6.118-4.045 11.369-10.061 11.369-2.73 0-5.107-1.223-6.37-2.702-.051-.051-.152-.051-.203-.051-.05 0-.202.051-.202.102v12.338c0 .408-.05.51-.506.51h-5.207c-.455 0-.506-.102-.506-.51V84.02c0-.408.05-.51.506-.51h5.207c.455 0 .506.102.506.51v1.631zM113.098 91.718c0 .459.05.51.505.51h7.938c.506 0 .556-.051.506-.51-.253-2.294-1.719-3.773-4.45-3.773-2.477.051-4.297 1.53-4.499 3.773zm6.067 8.922c2.174 0 4.6-.663 5.966-1.733.05-.051.151-.102.303-.102s.202.153.202.51v4.231c0 .255-.152.408-.505.612-1.163.816-4.197 1.427-6.573 1.427-7.078 0-11.527-4.945-11.527-11.369 0-6.322 4.348-11.216 10.617-11.216 6.775 0 10.465 4.741 10.465 11.624v.765c0 .969-.05 1.172-.505 1.172h-13.752c-.455 0-.556.051-.556.46.253 2.243 2.275 3.619 5.865 3.619z" fill="#0D2A3A"/><path d="M137.33 105.076c.437 0 .485-.098.485-.489v-7.863c0-4.835 1.699-7.668 5.389-7.668.776 0 1.31.098 1.504.098.243 0 .292-.147.292-.537v-5.129c0-.39-.049-.488-.486-.488-3.009 0-5.388 1.954-6.407 3.614-.049.049-.146.049-.195.049-.048 0-.194-.049-.194-.098v-2.54c0-.39-.048-.488-.485-.488h-5.146c-.437 0-.485.098-.485.489v20.561c0 .391.048.489.485.489h5.243z" fill="#0D2A3A"/><path d="M76.585 50.134c.802 0 1.336.535 1.336 1.337v13.634c0 .802.535 1.337 1.337 1.337h13.635c.802 0 1.337-.535 1.337-1.337V42.381c0-.268.267-.535.267-.535h4.545c1.337 0 2.139-1.337 1.069-2.406l-8.555-8.555c-.267-.268-.267-.535-.267-1.07V19.39c0-.802-.535-1.337-1.337-1.337h-5.347c-.802 0-1.337.535-1.337 1.337v3.475l-9.892-9.892a1.292 1.292 0 00-1.871 0L44.77 39.707c-.802.802-.267 2.406 1.07 2.406h4.544c.268 0 .535.268.535.268v22.724c0 .802.535 1.337 1.337 1.337H65.89c.802 0 1.336-.535 1.336-1.337V51.471c0-.802.535-1.337 1.337-1.337h8.02z" fill="#38CCFF"/><path d="M94.497 3.882c-.534-4.812-5.614-4.277-6.95-.267 0 .267-.268.267-.268 0-1.604-4.278-6.951-4.278-7.219.802 0 4.545 5.08 6.684 6.951 9.625.268.267.535.267.803 0 1.871-3.209 7.218-5.615 6.683-10.16z" fill="#E84676"/></svg>